<svg xmlns="http://www.w3.org/2000/svg" xmlns:xlink="http://www.w3.org/1999/xlink" version="1.1" x="0px" y="0px" viewBox="0 0 100 125" enable-background="new 0 0 100 100" xml:space="preserve"><g><path d="M45.032,70.831c5.724,0,11.267-1.842,15.839-5.212l15.66,16.066l4.297-4.188L65.272,61.538   c4.144-4.817,6.471-10.983,6.471-17.418c0-14.729-11.982-26.711-26.711-26.711S18.321,29.392,18.321,44.12   S30.304,70.831,45.032,70.831z M45.032,23.409c11.42,0,20.711,9.291,20.711,20.711c0,5.984-2.588,11.675-7.102,15.612   c-3.769,3.288-8.602,5.099-13.609,5.099c-11.42,0-20.711-9.291-20.711-20.711S33.612,23.409,45.032,23.409z"/></g></svg>